<?xml version="1.0" encoding="UTF-8"?>
<!--
  zaki-ui icons — one sprite, rendered from @remixicon/react v4.9.0.
  Licence as the package declares it: Remix Icon License 1.0.

  Every symbol paints with `currentColor`, so one file serves every theme.
  Use: <svg class="zk-icon"><use href="icons.svg#zk-check"/></svg>
-->
<svg xmlns="http://www.w3.org/2000/svg" style="display:none">
  <symbol id="zk-check" viewBox="0 0 24 24" fill="currentColor"><path d="M9.9997 15.1709L19.1921 5.97852L20.6063 7.39273L9.9997 17.9993L3.63574 11.6354L5.04996 10.2212L9.9997 15.1709Z"></path></symbol>
  <symbol id="zk-close" viewBox="0 0 24 24" fill="currentColor"><path d="M11.9997 10.5865L16.9495 5.63672L18.3637 7.05093L13.4139 12.0007L18.3637 16.9504L16.9495 18.3646L11.9997 13.4149L7.04996 18.3646L5.63574 16.9504L10.5855 12.0007L5.63574 7.05093L7.04996 5.63672L11.9997 10.5865Z"></path></symbol>
  <symbol id="zk-error-warning" viewBox="0 0 24 24" fill="currentColor"><path d="M12 22C6.47715 22 2 17.5228 2 12C2 6.47715 6.47715 2 12 2C17.5228 2 22 6.47715 22 12C22 17.5228 17.5228 22 12 22ZM12 20C16.4183 20 20 16.4183 20 12C20 7.58172 16.4183 4 12 4C7.58172 4 4 7.58172 4 12C4 16.4183 7.58172 20 12 20ZM11 15H13V17H11V15ZM11 7H13V13H11V7Z"></path></symbol>
  <symbol id="zk-alert" viewBox="0 0 24 24" fill="currentColor"><path d="M12.8659 3.00017L22.3922 19.5002C22.6684 19.9785 22.5045 20.5901 22.0262 20.8662C21.8742 20.954 21.7017 21.0002 21.5262 21.0002H2.47363C1.92135 21.0002 1.47363 20.5525 1.47363 20.0002C1.47363 19.8246 1.51984 19.6522 1.60761 19.5002L11.1339 3.00017C11.41 2.52187 12.0216 2.358 12.4999 2.63414C12.6519 2.72191 12.7782 2.84815 12.8659 3.00017ZM4.20568 19.0002H19.7941L11.9999 5.50017L4.20568 19.0002ZM10.9999 16.0002H12.9999V18.0002H10.9999V16.0002ZM10.9999 9.00017H12.9999V14.0002H10.9999V9.00017Z"></path></symbol>
  <symbol id="zk-information" viewBox="0 0 24 24" fill="currentColor"><path d="M12 22C6.47715 22 2 17.5228 2 12C2 6.47715 6.47715 2 12 2C17.5228 2 22 6.47715 22 12C22 17.5228 17.5228 22 12 22ZM12 20C16.4183 20 20 16.4183 20 12C20 7.58172 16.4183 4 12 4C7.58172 4 4 7.58172 4 12C4 16.4183 7.58172 20 12 20ZM11 7H13V9H11V7ZM11 11H13V17H11V11Z"></path></symbol>
  <symbol id="zk-loader" viewBox="0 0 24 24" fill="currentColor"><path d="M18.364 5.63604L16.9497 7.05025C15.683 5.7835 13.933 5 12 5C8.13401 5 5 8.13401 5 12C5 15.866 8.13401 19 12 19C15.866 19 19 15.866 19 12H21C21 16.9706 16.9706 21 12 21C7.02944 21 3 16.9706 3 12C3 7.02944 7.02944 3 12 3C14.4853 3 16.7353 4.00736 18.364 5.63604Z"></path></symbol>
  <symbol id="zk-lock" viewBox="0 0 24 24" fill="currentColor"><path d="M19 10H20C20.5523 10 21 10.4477 21 11V21C21 21.5523 20.5523 22 20 22H4C3.44772 22 3 21.5523 3 21V11C3 10.4477 3.44772 10 4 10H5V9C5 5.13401 8.13401 2 12 2C15.866 2 19 5.13401 19 9V10ZM5 12V20H19V12H5ZM11 14H13V18H11V14ZM17 10V9C17 6.23858 14.7614 4 12 4C9.23858 4 7 6.23858 7 9V10H17Z"></path></symbol>
  <symbol id="zk-lock-unlock" viewBox="0 0 24 24" fill="currentColor"><path d="M7 10H20C20.5523 10 21 10.4477 21 11V21C21 21.5523 20.5523 22 20 22H4C3.44772 22 3 21.5523 3 21V11C3 10.4477 3.44772 10 4 10H5V9C5 5.13401 8.13401 2 12 2C14.7405 2 17.1131 3.5748 18.2624 5.86882L16.4731 6.76344C15.6522 5.12486 13.9575 4 12 4C9.23858 4 7 6.23858 7 9V10ZM5 12V20H19V12H5ZM10 15H14V17H10V15Z"></path></symbol>
  <symbol id="zk-arrow-up" viewBox="0 0 24 24" fill="currentColor"><path d="M13.0001 7.82843V20H11.0001V7.82843L5.63614 13.1924L4.22192 11.7782L12.0001 4L19.7783 11.7782L18.3641 13.1924L13.0001 7.82843Z"></path></symbol>
  <symbol id="zk-arrow-down" viewBox="0 0 24 24" fill="currentColor"><path d="M13.0001 16.1716L18.3641 10.8076L19.7783 12.2218L12.0001 20L4.22192 12.2218L5.63614 10.8076L11.0001 16.1716V4H13.0001V16.1716Z"></path></symbol>
  <symbol id="zk-arrow-left" viewBox="0 0 24 24" fill="currentColor"><path d="M7.82843 10.9999H20V12.9999H7.82843L13.1924 18.3638L11.7782 19.778L4 11.9999L11.7782 4.22168L13.1924 5.63589L7.82843 10.9999Z"></path></symbol>
  <symbol id="zk-arrow-right" viewBox="0 0 24 24" fill="currentColor"><path d="M16.1716 10.9999L10.8076 5.63589L12.2218 4.22168L20 11.9999L12.2218 19.778L10.8076 18.3638L16.1716 12.9999H4V10.9999H16.1716Z"></path></symbol>
  <symbol id="zk-chevron-up" viewBox="0 0 24 24" fill="currentColor"><path d="M11.9999 10.8284L7.0502 15.7782L5.63599 14.364L11.9999 8L18.3639 14.364L16.9497 15.7782L11.9999 10.8284Z"></path></symbol>
  <symbol id="zk-chevron-down" viewBox="0 0 24 24" fill="currentColor"><path d="M11.9999 13.1714L16.9497 8.22168L18.3639 9.63589L11.9999 15.9999L5.63599 9.63589L7.0502 8.22168L11.9999 13.1714Z"></path></symbol>
  <symbol id="zk-chevron-left" viewBox="0 0 24 24" fill="currentColor"><path d="M10.8284 12.0007L15.7782 16.9504L14.364 18.3646L8 12.0007L14.364 5.63672L15.7782 7.05093L10.8284 12.0007Z"></path></symbol>
  <symbol id="zk-chevron-right" viewBox="0 0 24 24" fill="currentColor"><path d="M13.1717 12.0007L8.22192 7.05093L9.63614 5.63672L16.0001 12.0007L9.63614 18.3646L8.22192 16.9504L13.1717 12.0007Z"></path></symbol>
  <symbol id="zk-external-link" viewBox="0 0 24 24" fill="currentColor"><path d="M10 6V8H5V19H16V14H18V20C18 20.5523 17.5523 21 17 21H4C3.44772 21 3 20.5523 3 20V7C3 6.44772 3.44772 6 4 6H10ZM21 3V11H19L18.9999 6.413L11.2071 14.2071L9.79289 12.7929L17.5849 5H13V3H21Z"></path></symbol>
  <symbol id="zk-menu" viewBox="0 0 24 24" fill="currentColor"><path d="M3 4H21V6H3V4ZM3 11H21V13H3V11ZM3 18H21V20H3V18Z"></path></symbol>
  <symbol id="zk-refresh" viewBox="0 0 24 24" fill="currentColor"><path d="M5.46257 4.43262C7.21556 2.91688 9.5007 2 12 2C17.5228 2 22 6.47715 22 12C22 14.1361 21.3302 16.1158 20.1892 17.7406L17 12H20C20 7.58172 16.4183 4 12 4C9.84982 4 7.89777 4.84827 6.46023 6.22842L5.46257 4.43262ZM18.5374 19.5674C16.7844 21.0831 14.4993 22 12 22C6.47715 22 2 17.5228 2 12C2 9.86386 2.66979 7.88416 3.8108 6.25944L7 12H4C4 16.4183 7.58172 20 12 20C14.1502 20 16.1022 19.1517 17.5398 17.7716L18.5374 19.5674Z"></path></symbol>
  <symbol id="zk-search" viewBox="0 0 24 24" fill="currentColor"><path d="M18.031 16.6168L22.3137 20.8995L20.8995 22.3137L16.6168 18.031C15.0769 19.263 13.124 20 11 20C6.032 20 2 15.968 2 11C2 6.032 6.032 2 11 2C15.968 2 20 6.032 20 11C20 13.124 19.263 15.0769 18.031 16.6168ZM16.0247 15.8748C17.2475 14.6146 18 12.8956 18 11C18 7.1325 14.8675 4 11 4C7.1325 4 4 7.1325 4 11C4 14.8675 7.1325 18 11 18C12.8956 18 14.6146 17.2475 15.8748 16.0247L16.0247 15.8748Z"></path></symbol>
  <symbol id="zk-filter" viewBox="0 0 24 24" fill="currentColor"><path d="M10 18H14V16H10V18ZM3 6V8H21V6H3ZM6 13H18V11H6V13Z"></path></symbol>
  <symbol id="zk-settings" viewBox="0 0 24 24" fill="currentColor"><path d="M3.33946 17.0002C2.90721 16.2515 2.58277 15.4702 2.36133 14.6741C3.3338 14.1779 3.99972 13.1668 3.99972 12.0002C3.99972 10.8345 3.3348 9.824 2.36353 9.32741C2.81025 7.71651 3.65857 6.21627 4.86474 4.99001C5.7807 5.58416 6.98935 5.65534 7.99972 5.072C9.01009 4.48866 9.55277 3.40635 9.4962 2.31604C11.1613 1.8846 12.8847 1.90004 14.5031 2.31862C14.4475 3.40806 14.9901 4.48912 15.9997 5.072C17.0101 5.65532 18.2187 5.58416 19.1346 4.99007C19.7133 5.57986 20.2277 6.25151 20.66 7.00021C21.0922 7.7489 21.4167 8.53025 21.6381 9.32628C20.6656 9.82247 19.9997 10.8336 19.9997 12.0002C19.9997 13.166 20.6646 14.1764 21.6359 14.673C21.1892 16.2839 20.3409 17.7841 19.1347 19.0104C18.2187 18.4163 17.0101 18.3451 15.9997 18.9284C14.9893 19.5117 14.4467 20.5941 14.5032 21.6844C12.8382 22.1158 11.1148 22.1004 9.49633 21.6818C9.55191 20.5923 9.00929 19.5113 7.99972 18.9284C6.98938 18.3451 5.78079 18.4162 4.86484 19.0103C4.28617 18.4205 3.77172 17.7489 3.33946 17.0002ZM8.99972 17.1964C10.0911 17.8265 10.8749 18.8227 11.2503 19.9659C11.7486 20.0133 12.2502 20.014 12.7486 19.9675C13.1238 18.8237 13.9078 17.8268 14.9997 17.1964C16.0916 16.5659 17.347 16.3855 18.5252 16.6324C18.8146 16.224 19.0648 15.7892 19.2729 15.334C18.4706 14.4373 17.9997 13.2604 17.9997 12.0002C17.9997 10.74 18.4706 9.5632 19.2729 8.6665C19.1688 8.4405 19.0538 8.21822 18.9279 8.00021C18.802 7.78219 18.667 7.57148 18.5233 7.36842C17.3457 7.61476 16.0911 7.43414 14.9997 6.80405C13.9083 6.17395 13.1246 5.17768 12.7491 4.03455C12.2509 3.98714 11.7492 3.98646 11.2509 4.03292C10.8756 5.17671 10.0916 6.17364 8.99972 6.80405C7.9078 7.43447 6.65245 7.61494 5.47428 7.36803C5.18485 7.77641 4.93463 8.21117 4.72656 8.66637C5.52881 9.56311 5.99972 10.74 5.99972 12.0002C5.99972 13.2604 5.52883 14.4372 4.72656 15.3339C4.83067 15.5599 4.94564 15.7822 5.07152 16.0002C5.19739 16.2182 5.3324 16.4289 5.47612 16.632C6.65377 16.3857 7.90838 16.5663 8.99972 17.1964ZM11.9997 15.0002C10.3429 15.0002 8.99972 13.6571 8.99972 12.0002C8.99972 10.3434 10.3429 9.00021 11.9997 9.00021C13.6566 9.00021 14.9997 10.3434 14.9997 12.0002C14.9997 13.6571 13.6566 15.0002 11.9997 15.0002ZM11.9997 13.0002C12.552 13.0002 12.9997 12.5525 12.9997 12.0002C12.9997 11.4479 12.552 11.0002 11.9997 11.0002C11.4474 11.0002 10.9997 11.4479 10.9997 12.0002C10.9997 12.5525 11.4474 13.0002 11.9997 13.0002Z"></path></symbol>
  <symbol id="zk-edit" viewBox="0 0 24 24" fill="currentColor"><path d="M15.7279 9.57627L14.3137 8.16206L5 17.4758V18.89H6.41421L15.7279 9.57627ZM17.1421 8.16206L18.5563 6.74785L17.1421 5.33363L15.7279 6.74785L17.1421 8.16206ZM7.24264 20.89H3V16.6473L16.435 3.21231C16.8256 2.82179 17.4587 2.82179 17.8492 3.21231L20.6777 6.04074C21.0682 6.43126 21.0682 7.06443 20.6777 7.45495L7.24264 20.89Z"></path></symbol>
  <symbol id="zk-delete" viewBox="0 0 24 24" fill="currentColor"><path d="M17 6H22V8H20V21C20 21.5523 19.5523 22 19 22H5C4.44772 22 4 21.5523 4 21V8H2V6H7V3C7 2.44772 7.44772 2 8 2H16C16.5523 2 17 2.44772 17 3V6ZM18 8H6V20H18V8ZM9 11H11V17H9V11ZM13 11H15V17H13V11ZM9 4V6H15V4H9Z"></path></symbol>
  <symbol id="zk-copy" viewBox="0 0 24 24" fill="currentColor"><path d="M6.9998 6V3C6.9998 2.44772 7.44752 2 7.9998 2H19.9998C20.5521 2 20.9998 2.44772 20.9998 3V17C20.9998 17.5523 20.5521 18 19.9998 18H16.9998V20.9991C16.9998 21.5519 16.5499 22 15.993 22H4.00666C3.45059 22 3 21.5554 3 20.9991L3.0026 7.00087C3.0027 6.44811 3.45264 6 4.00942 6H6.9998ZM5.00242 8L5.00019 20H14.9998V8H5.00242ZM8.9998 6H16.9998V16H18.9998V4H8.9998V6Z"></path></symbol>
  <symbol id="zk-download" viewBox="0 0 24 24" fill="currentColor"><path d="M3 19H21V21H3V19ZM13 13.1716L19.0711 7.1005L20.4853 8.51472L12 17L3.51472 8.51472L4.92893 7.1005L11 13.1716V2H13V13.1716Z"></path></symbol>
  <symbol id="zk-upload" viewBox="0 0 24 24" fill="currentColor"><path d="M3 19H21V21H3V19ZM13 5.82843V17H11V5.82843L4.92893 11.8995L3.51472 10.4853L12 2L20.4853 10.4853L19.0711 11.8995L13 5.82843Z"></path></symbol>
  <symbol id="zk-eye" viewBox="0 0 24 24" fill="currentColor"><path d="M12.0003 3C17.3924 3 21.8784 6.87976 22.8189 12C21.8784 17.1202 17.3924 21 12.0003 21C6.60812 21 2.12215 17.1202 1.18164 12C2.12215 6.87976 6.60812 3 12.0003 3ZM12.0003 19C16.2359 19 19.8603 16.052 20.7777 12C19.8603 7.94803 16.2359 5 12.0003 5C7.7646 5 4.14022 7.94803 3.22278 12C4.14022 16.052 7.7646 19 12.0003 19ZM12.0003 16.5C9.51498 16.5 7.50026 14.4853 7.50026 12C7.50026 9.51472 9.51498 7.5 12.0003 7.5C14.4855 7.5 16.5003 9.51472 16.5003 12C16.5003 14.4853 14.4855 16.5 12.0003 16.5ZM12.0003 14.5C13.381 14.5 14.5003 13.3807 14.5003 12C14.5003 10.6193 13.381 9.5 12.0003 9.5C10.6196 9.5 9.50026 10.6193 9.50026 12C9.50026 13.3807 10.6196 14.5 12.0003 14.5Z"></path></symbol>
  <symbol id="zk-eye-off" viewBox="0 0 24 24" fill="currentColor"><path d="M17.8827 19.2968C16.1814 20.3755 14.1638 21.0002 12.0003 21.0002C6.60812 21.0002 2.12215 17.1204 1.18164 12.0002C1.61832 9.62282 2.81932 7.5129 4.52047 5.93457L1.39366 2.80777L2.80788 1.39355L22.6069 21.1925L21.1927 22.6068L17.8827 19.2968ZM5.9356 7.3497C4.60673 8.56015 3.6378 10.1672 3.22278 12.0002C4.14022 16.0521 7.7646 19.0002 12.0003 19.0002C13.5997 19.0002 15.112 18.5798 16.4243 17.8384L14.396 15.8101C13.7023 16.2472 12.8808 16.5002 12.0003 16.5002C9.51498 16.5002 7.50026 14.4854 7.50026 12.0002C7.50026 11.1196 7.75317 10.2981 8.19031 9.60442L5.9356 7.3497ZM12.9139 14.328L9.67246 11.0866C9.5613 11.3696 9.50026 11.6777 9.50026 12.0002C9.50026 13.3809 10.6196 14.5002 12.0003 14.5002C12.3227 14.5002 12.6309 14.4391 12.9139 14.328ZM20.8068 16.5925L19.376 15.1617C20.0319 14.2268 20.5154 13.1586 20.7777 12.0002C19.8603 7.94818 16.2359 5.00016 12.0003 5.00016C11.1544 5.00016 10.3329 5.11773 9.55249 5.33818L7.97446 3.76015C9.22127 3.26959 10.5793 3.00016 12.0003 3.00016C17.3924 3.00016 21.8784 6.87992 22.8189 12.0002C22.5067 13.6998 21.8038 15.2628 20.8068 16.5925ZM11.7229 7.50857C11.8146 7.50299 11.9071 7.50016 12.0003 7.50016C14.4855 7.50016 16.5003 9.51488 16.5003 12.0002C16.5003 12.0933 16.4974 12.1858 16.4919 12.2775L11.7229 7.50857Z"></path></symbol>
  <symbol id="zk-play" viewBox="0 0 24 24" fill="currentColor"><path d="M16.3944 12.0001L10 7.7371V16.263L16.3944 12.0001ZM19.376 12.4161L8.77735 19.4818C8.54759 19.635 8.23715 19.5729 8.08397 19.3432C8.02922 19.261 8 19.1645 8 19.0658V4.93433C8 4.65818 8.22386 4.43433 8.5 4.43433C8.59871 4.43433 8.69522 4.46355 8.77735 4.5183L19.376 11.584C19.6057 11.7372 19.6678 12.0477 19.5146 12.2774C19.478 12.3323 19.4309 12.3795 19.376 12.4161Z"></path></symbol>
  <symbol id="zk-pause" viewBox="0 0 24 24" fill="currentColor"><path d="M6 5H8V19H6V5ZM16 5H18V19H16V5Z"></path></symbol>
  <symbol id="zk-stop" viewBox="0 0 24 24" fill="currentColor"><path d="M7 7V17H17V7H7ZM6 5H18C18.5523 5 19 5.44772 19 6V18C19 18.5523 18.5523 19 18 19H6C5.44772 19 5 18.5523 5 18V6C5 5.44772 5.44772 5 6 5Z"></path></symbol>
  <symbol id="zk-volume" viewBox="0 0 24 24" fill="currentColor"><path d="M6.60282 10.0001L10 7.22056V16.7796L6.60282 14.0001H3V10.0001H6.60282ZM2 16.0001H5.88889L11.1834 20.3319C11.2727 20.405 11.3846 20.4449 11.5 20.4449C11.7761 20.4449 12 20.2211 12 19.9449V4.05519C12 3.93977 11.9601 3.8279 11.887 3.73857C11.7121 3.52485 11.3971 3.49335 11.1834 3.66821L5.88889 8.00007H2C1.44772 8.00007 1 8.44778 1 9.00007V15.0001C1 15.5524 1.44772 16.0001 2 16.0001ZM23 12C23 15.292 21.5539 18.2463 19.2622 20.2622L17.8445 18.8444C19.7758 17.1937 21 14.7398 21 12C21 9.26016 19.7758 6.80629 17.8445 5.15557L19.2622 3.73779C21.5539 5.75368 23 8.70795 23 12ZM18 12C18 10.0883 17.106 8.38548 15.7133 7.28673L14.2842 8.71584C15.3213 9.43855 16 10.64 16 12C16 13.36 15.3213 14.5614 14.2842 15.2841L15.7133 16.7132C17.106 15.6145 18 13.9116 18 12Z"></path></symbol>
  <symbol id="zk-mic" viewBox="0 0 24 24" fill="currentColor"><path d="M11.9998 3C10.3429 3 8.99976 4.34315 8.99976 6V10C8.99976 11.6569 10.3429 13 11.9998 13C13.6566 13 14.9998 11.6569 14.9998 10V6C14.9998 4.34315 13.6566 3 11.9998 3ZM11.9998 1C14.7612 1 16.9998 3.23858 16.9998 6V10C16.9998 12.7614 14.7612 15 11.9998 15C9.23833 15 6.99976 12.7614 6.99976 10V6C6.99976 3.23858 9.23833 1 11.9998 1ZM3.05469 11H5.07065C5.55588 14.3923 8.47329 17 11.9998 17C15.5262 17 18.4436 14.3923 18.9289 11H20.9448C20.4837 15.1716 17.1714 18.4839 12.9998 18.9451V23H10.9998V18.9451C6.82814 18.4839 3.51584 15.1716 3.05469 11Z"></path></symbol>
  <symbol id="zk-image" viewBox="0 0 24 24" fill="currentColor"><path d="M2.9918 21C2.44405 21 2 20.5551 2 20.0066V3.9934C2 3.44476 2.45531 3 2.9918 3H21.0082C21.556 3 22 3.44495 22 3.9934V20.0066C22 20.5552 21.5447 21 21.0082 21H2.9918ZM20 15V5H4V19L14 9L20 15ZM20 17.8284L14 11.8284L6.82843 19H20V17.8284ZM8 11C6.89543 11 6 10.1046 6 9C6 7.89543 6.89543 7 8 7C9.10457 7 10 7.89543 10 9C10 10.1046 9.10457 11 8 11Z"></path></symbol>
  <symbol id="zk-film" viewBox="0 0 24 24" fill="currentColor"><path d="M2 3.9934C2 3.44476 2.45531 3 2.9918 3H21.0082C21.556 3 22 3.44495 22 3.9934V20.0066C22 20.5552 21.5447 21 21.0082 21H2.9918C2.44405 21 2 20.5551 2 20.0066V3.9934ZM8 5V19H16V5H8ZM4 5V7H6V5H4ZM18 5V7H20V5H18ZM4 9V11H6V9H4ZM18 9V11H20V9H18ZM4 13V15H6V13H4ZM18 13V15H20V13H18ZM4 17V19H6V17H4ZM18 17V19H20V17H18Z"></path></symbol>
  <symbol id="zk-scissors" viewBox="0 0 24 24" fill="currentColor"><path d="M9.44618 8.02867L12 10.5825L18.7279 3.85457C19.509 3.07352 20.7753 3.07352 21.5563 3.85457L9.44618 15.9647C9.79807 16.5603 10 17.2549 10 17.9967C10 20.2058 8.20914 21.9967 6 21.9967C3.79086 21.9967 2 20.2058 2 17.9967C2 15.7876 3.79086 13.9967 6 13.9967C6.74181 13.9967 7.43645 14.1986 8.03197 14.5505L10.5858 11.9967L8.03197 9.44289C7.43645 9.79478 6.74181 9.9967 6 9.9967C3.79086 9.9967 2 8.20584 2 5.9967C2 3.78756 3.79086 1.9967 6 1.9967C8.20914 1.9967 10 3.78756 10 5.9967C10 6.73851 9.79807 7.43316 9.44618 8.02867ZM14.8255 13.408L21.5563 20.1388C20.7753 20.9199 19.509 20.9199 18.7279 20.1388L13.4113 14.8222L14.8255 13.408ZM7.41421 16.5825C7.05228 16.2206 6.55228 15.9967 6 15.9967C4.89543 15.9967 4 16.8921 4 17.9967C4 19.1013 4.89543 19.9967 6 19.9967C7.10457 19.9967 8 19.1013 8 17.9967C8 17.4444 7.77614 16.9444 7.41421 16.5825ZM7.41421 7.41092C7.77614 7.04899 8 6.54899 8 5.9967C8 4.89213 7.10457 3.9967 6 3.9967C4.89543 3.9967 4 4.89213 4 5.9967C4 7.10127 4.89543 7.9967 6 7.9967C6.55228 7.9967 7.05228 7.77285 7.41421 7.41092Z"></path></symbol>
  <symbol id="zk-music" viewBox="0 0 24 24" fill="currentColor"><path d="M20 3V17C20 19.2091 18.2091 21 16 21C13.7909 21 12 19.2091 12 17C12 14.7909 13.7909 13 16 13C16.7286 13 17.4117 13.1948 18 13.5351V5H9V17C9 19.2091 7.20914 21 5 21C2.79086 21 1 19.2091 1 17C1 14.7909 2.79086 13 5 13C5.72857 13 6.41165 13.1948 7 13.5351V3H20ZM5 19C6.10457 19 7 18.1046 7 17C7 15.8954 6.10457 15 5 15C3.89543 15 3 15.8954 3 17C3 18.1046 3.89543 19 5 19ZM16 19C17.1046 19 18 18.1046 18 17C18 15.8954 17.1046 15 16 15C14.8954 15 14 15.8954 14 17C14 18.1046 14.8954 19 16 19Z"></path></symbol>
  <symbol id="zk-user" viewBox="0 0 24 24" fill="currentColor"><path d="M4 22C4 17.5817 7.58172 14 12 14C16.4183 14 20 17.5817 20 22H18C18 18.6863 15.3137 16 12 16C8.68629 16 6 18.6863 6 22H4ZM12 13C8.685 13 6 10.315 6 7C6 3.685 8.685 1 12 1C15.315 1 18 3.685 18 7C18 10.315 15.315 13 12 13ZM12 11C14.21 11 16 9.21 16 7C16 4.79 14.21 3 12 3C9.79 3 8 4.79 8 7C8 9.21 9.79 11 12 11Z"></path></symbol>
  <symbol id="zk-group" viewBox="0 0 24 24" fill="currentColor"><path d="M2 22C2 17.5817 5.58172 14 10 14C14.4183 14 18 17.5817 18 22H16C16 18.6863 13.3137 16 10 16C6.68629 16 4 18.6863 4 22H2ZM10 13C6.685 13 4 10.315 4 7C4 3.685 6.685 1 10 1C13.315 1 16 3.685 16 7C16 10.315 13.315 13 10 13ZM10 11C12.21 11 14 9.21 14 7C14 4.79 12.21 3 10 3C7.79 3 6 4.79 6 7C6 9.21 7.79 11 10 11ZM18.2837 14.7028C21.0644 15.9561 23 18.752 23 22H21C21 19.564 19.5483 17.4671 17.4628 16.5271L18.2837 14.7028ZM17.5962 3.41321C19.5944 4.23703 21 6.20361 21 8.5C21 11.3702 18.8042 13.7252 16 13.9776V11.9646C17.6967 11.7222 19 10.264 19 8.5C19 7.11935 18.2016 5.92603 17.041 5.35635L17.5962 3.41321Z"></path></symbol>
  <symbol id="zk-bar-chart" viewBox="0 0 24 24" fill="currentColor"><path d="M3 12H5V21H3V12ZM19 8H21V21H19V8ZM11 2H13V21H11V2Z"></path></symbol>
  <symbol id="zk-database" viewBox="0 0 24 24" fill="currentColor"><path d="M5 12.5C5 12.8134 5.46101 13.3584 6.53047 13.8931C7.91405 14.5849 9.87677 15 12 15C14.1232 15 16.0859 14.5849 17.4695 13.8931C18.539 13.3584 19 12.8134 19 12.5V10.3287C17.35 11.3482 14.8273 12 12 12C9.17273 12 6.64996 11.3482 5 10.3287V12.5ZM19 15.3287C17.35 16.3482 14.8273 17 12 17C9.17273 17 6.64996 16.3482 5 15.3287V17.5C5 17.8134 5.46101 18.3584 6.53047 18.8931C7.91405 19.5849 9.87677 20 12 20C14.1232 20 16.0859 19.5849 17.4695 18.8931C18.539 18.3584 19 17.8134 19 17.5V15.3287ZM3 17.5V7.5C3 5.01472 7.02944 3 12 3C16.9706 3 21 5.01472 21 7.5V17.5C21 19.9853 16.9706 22 12 22C7.02944 22 3 19.9853 3 17.5ZM12 10C14.1232 10 16.0859 9.58492 17.4695 8.89313C18.539 8.3584 19 7.81342 19 7.5C19 7.18658 18.539 6.6416 17.4695 6.10687C16.0859 5.41508 14.1232 5 12 5C9.87677 5 7.91405 5.41508 6.53047 6.10687C5.46101 6.6416 5 7.18658 5 7.5C5 7.81342 5.46101 8.3584 6.53047 8.89313C7.91405 9.58492 9.87677 10 12 10Z"></path></symbol>
  <symbol id="zk-cloud" viewBox="0 0 24 24" fill="currentColor"><path d="M12 2C15.866 2 19 5.13401 19 9C19 9.11351 18.9973 9.22639 18.992 9.33857C21.3265 10.16 23 12.3846 23 15C23 18.3137 20.3137 21 17 21H7C3.68629 21 1 18.3137 1 15C1 12.3846 2.67346 10.16 5.00804 9.33857C5.0027 9.22639 5 9.11351 5 9C5 5.13401 8.13401 2 12 2ZM12 4C9.23858 4 7 6.23858 7 9C7 9.08147 7.00193 9.16263 7.00578 9.24344L7.07662 10.7309L5.67183 11.2252C4.0844 11.7837 3 13.2889 3 15C3 17.2091 4.79086 19 7 19H17C19.2091 19 21 17.2091 21 15C21 12.79 19.21 11 17 11C15.233 11 13.7337 12.1457 13.2042 13.7347L11.3064 13.1021C12.1005 10.7185 14.35 9 17 9C17 6.23858 14.7614 4 12 4Z"></path></symbol>
  <symbol id="zk-inbox" viewBox="0 0 24 24" fill="currentColor"><path d="M21 3C21.5523 3 22 3.44772 22 4V20C22 20.5523 21.5523 21 21 21H3C2.44772 21 2 20.5523 2 20V4C2 3.44772 2.44772 3 3 3H21ZM7.41604 14H4V19H20V14H16.584C15.8124 15.7659 14.0503 17 12 17C9.94968 17 8.1876 15.7659 7.41604 14ZM20 5H4V12H9C9 13.6569 10.3431 15 12 15C13.6569 15 15 13.6569 15 12H20V5Z"></path></symbol>
  <symbol id="zk-time" viewBox="0 0 24 24" fill="currentColor"><path d="M12 22C6.47715 22 2 17.5228 2 12C2 6.47715 6.47715 2 12 2C17.5228 2 22 6.47715 22 12C22 17.5228 17.5228 22 12 22ZM12 20C16.4183 20 20 16.4183 20 12C20 7.58172 16.4183 4 12 4C7.58172 4 4 7.58172 4 12C4 16.4183 7.58172 20 12 20ZM13 12H17V14H11V7H13V12Z"></path></symbol>
  <symbol id="zk-history" viewBox="0 0 24 24" fill="currentColor"><path d="M12 2C17.5228 2 22 6.47715 22 12C22 17.5228 17.5228 22 12 22C6.47715 22 2 17.5228 2 12H4C4 16.4183 7.58172 20 12 20C16.4183 20 20 16.4183 20 12C20 7.58172 16.4183 4 12 4C9.25022 4 6.82447 5.38734 5.38451 7.50024L8 7.5V9.5H2V3.5H4L3.99989 5.99918C5.82434 3.57075 8.72873 2 12 2ZM13 7L12.9998 11.585L16.2426 14.8284L14.8284 16.2426L10.9998 12.413L11 7H13Z"></path></symbol>
  <symbol id="zk-rocket" viewBox="0 0 24 24" fill="currentColor"><path d="M4.99958 12.9999C4.99958 7.91198 7.90222 3.5636 11.9996 1.81799C16.0969 3.5636 18.9996 7.91198 18.9996 12.9999C18.9996 13.8229 18.9236 14.6264 18.779 15.4027L20.7194 17.2353C20.8845 17.3913 20.9238 17.6389 20.815 17.8383L18.3196 22.4133C18.1873 22.6557 17.8836 22.7451 17.6412 22.6128C17.5993 22.59 17.5608 22.5612 17.5271 22.5274L15.2925 20.2928C15.1049 20.1053 14.8506 19.9999 14.5854 19.9999H9.41379C9.14857 19.9999 8.89422 20.1053 8.70668 20.2928L6.47209 22.5274C6.27683 22.7227 5.96025 22.7227 5.76498 22.5274C5.73122 22.4937 5.70246 22.4552 5.67959 22.4133L3.18412 17.8383C3.07537 17.6389 3.11464 17.3913 3.27975 17.2353L5.22014 15.4027C5.07551 14.6264 4.99958 13.8229 4.99958 12.9999ZM6.47542 19.6957L7.29247 18.8786C7.85508 18.316 8.61814 17.9999 9.41379 17.9999H14.5854C15.381 17.9999 16.1441 18.316 16.7067 18.8786L17.5237 19.6957L18.5056 17.8955L17.4058 16.8568C16.9117 16.3901 16.6884 15.7045 16.8128 15.0364C16.9366 14.3722 16.9996 13.6911 16.9996 12.9999C16.9996 9.13037 15.0045 5.69965 11.9996 4.04033C8.99462 5.69965 6.99958 9.13037 6.99958 12.9999C6.99958 13.6911 7.06255 14.3722 7.18631 15.0364C7.31078 15.7045 7.08746 16.3901 6.59338 16.8568L5.49353 17.8955L6.47542 19.6957ZM11.9996 12.9999C10.895 12.9999 9.99958 12.1045 9.99958 10.9999C9.99958 9.89537 10.895 8.99994 11.9996 8.99994C13.1041 8.99994 13.9996 9.89537 13.9996 10.9999C13.9996 12.1045 13.1041 12.9999 11.9996 12.9999Z"></path></symbol>
</svg>
